<svg xmlns="http://www.w3.org/2000/svg" viewBox="3 8 233 204" width="233" height="204" role="img" aria-label="DatorHuset">
  <title>DatorHuset</title>
  <g>
    <rect x="178" y="8" width="18" height="44" fill="#B26BDE"/>
    <polygon points="26,76 134,44 214,76 214,180 134,212 26,180" fill="#242428"/>
    
    
    <circle cx="54" cy="94" r="18" fill="#C9A0EA"/>
    <circle cx="54" cy="94" r="7" fill="#242428"/>
    
    <path d="M96 84C88 70 98 64 110 62" fill="none" stroke="#6E6E82" stroke-width="6" stroke-linecap="round"/>
    <path d="M118 84C116 72 122 66 130 64" fill="none" stroke="#6E6E82" stroke-width="6" stroke-linecap="round"/>
    <rect x="88" y="82" width="38" height="32" rx="5" fill="#9B4DE0"/>
    
    <circle cx="107" cy="98" r="10" fill="#C9A0EA"/>
    <circle cx="107" cy="98" r="4" fill="#242428"/>
    
    <rect x="118" y="120" width="9" height="44" rx="2" fill="#C9A0EA"/>
    <rect x="40" y="122" width="78" height="34" rx="3" fill="#9B4DE0"/>
    <circle cx="60" cy="139" r="11" fill="#242428"/>
    <circle cx="60" cy="139" r="3.5" fill="#C9A0EA"/>
    <circle cx="92" cy="139" r="11" fill="#242428"/>
    <circle cx="92" cy="139" r="3.5" fill="#C9A0EA"/>
    <rect x="40" y="156" width="78" height="7" rx="2" fill="#555566"/>
    
    <circle cx="48" cy="176" r="11" fill="#C9A0EA"/>
    <circle cx="48" cy="176" r="4" fill="#242428"/>
    
    <circle cx="76" cy="183" r="11" fill="#C9A0EA"/>
    <circle cx="76" cy="183" r="4" fill="#242428"/>
    
    <circle cx="104" cy="190" r="11" fill="#C9A0EA"/>
    <circle cx="104" cy="190" r="4" fill="#242428"/>
    <polygon points="152,104 186,118 186,190 152,202" fill="#3FD9F5"/>
    <circle cx="178" cy="152" r="6.5" fill="#141418"/>
    <polyline points="26,76 134,44 214,76" fill="none" stroke="#F2F2F7" stroke-width="6" stroke-linejoin="miter"/>
    <path d="M134 44V212" stroke="#F2F2F7" stroke-width="6"/>
    <polyline points="11,60 134,24 229,62" fill="none" stroke="#B26BDE" stroke-width="15" stroke-linecap="butt" stroke-linejoin="miter"/>
  </g>
</svg>
