<svg xmlns="http://www.w3.org/2000/svg" viewBox="0 0 256 256" width="256" height="256" role="img" aria-label="DatorHuset">
  <title>DatorHuset</title>

  <rect width="256" height="256" rx="52" fill="#F4F4F8"/>
  <g transform="translate(128 128) scale(1.06) translate(-119.5 -110)">
    <rect x="178" y="8" width="18" height="44" fill="#B26BDE"/>
    <polygon points="26,76 134,44 214,76 214,180 134,212 26,180" fill="#242428"/>
    
    
    <circle cx="66" cy="100" r="28" fill="#C9A0EA"/>
    <circle cx="66" cy="100" r="11" fill="#242428"/>
    <rect x="114" y="128" width="9" height="40" rx="2" fill="#C9A0EA"/>
    <rect x="40" y="132" width="74" height="32" rx="3" fill="#9B4DE0"/>
    
    <circle cx="58" cy="148" r="11" fill="#C9A0EA"/>
    <circle cx="58" cy="148" r="4" fill="#242428"/>
    
    <circle cx="90" cy="148" r="11" fill="#C9A0EA"/>
    <circle cx="90" cy="148" r="4" fill="#242428"/>
    <polygon points="152,104 186,118 186,190 152,202" fill="#3FD9F5"/>
    <circle cx="178" cy="152" r="6.5" fill="#141418"/>
    <polyline points="26,76 134,44 214,76" fill="none" stroke="#F2F2F7" stroke-width="6" stroke-linejoin="miter"/>
    <path d="M134 44V212" stroke="#F2F2F7" stroke-width="6"/>
    <polyline points="11,60 134,24 229,62" fill="none" stroke="#B26BDE" stroke-width="15" stroke-linecap="butt" stroke-linejoin="miter"/>
  </g>
</svg>
