<svg xmlns="http://www.w3.org/2000/svg" viewBox="0 0 1600 900" width="1600" height="900">
  <g fill="none" stroke="#B26BDE" stroke-width="1.2" stroke-opacity="0.55" stroke-linecap="round" stroke-linejoin="round">
    <path d="M1497.9 0C1492.2 1.8 1475.7 7.1 1463.3 10.7C1450.9 14.3 1436.2 18.5 1423.4 21.4C1410.7 24.4 1396.4 27 1386.7 28.5C1377 30.1 1370.7 30.5 1365.3 30.8C1360 31.1 1358.2 31 1354.7 30.2C1351.1 29.4 1346.4 27.3 1344 25.8C1341.6 24.4 1340.4 23.9 1340.4 21.4C1340.3 18.9 1341.8 14.3 1344 10.7C1346.1 7.1 1351.7 1.8 1353.3 0"/>
    <path d="M0 758.4C14.9 751.6 57.5 731.8 89.4 717.9C121.2 704 160.4 687.5 191 675C221.7 662.5 244.5 653.6 273.2 642.9C301.8 632.1 336.4 619.6 363.1 610.7C389.8 601.8 413.8 594.7 433.3 589.3C452.8 583.9 466.9 580.7 480 578.3C493.1 575.9 504.9 575.4 512 574.9C519.1 574.4 518.9 574.7 522.7 575.3C526.5 575.9 532.4 576.2 534.7 578.6C537 580.9 537.4 585.7 536.6 589.3C535.7 592.9 532.6 596.4 529.6 600C526.6 603.6 522.8 607.1 518.8 610.7C514.8 614.3 510.3 617.9 505.7 621.4C501.1 625 499 626.8 491 632.1C483 637.5 472.7 644.6 457.7 653.6C442.7 662.5 424.5 673.2 401 685.7C377.5 698.2 346.1 714.3 316.7 728.6C287.3 742.9 260.9 755.4 224.7 771.4C188.5 787.5 137.1 809.6 99.6 825C62.2 840.4 16.6 857.5 0 864"/>
    <path d="M1353.3 900C1355.3 898.2 1358.4 894.6 1365.3 889.3C1372.2 883.9 1381.2 876.8 1394.9 867.9C1408.7 858.9 1425.5 848.2 1447.8 835.7C1470 823.2 1503.1 805.7 1528.5 792.9C1553.9 780 1588.1 764.1 1600 758.4"/>
    <path d="M1600 864C1593.5 866.4 1577.7 872.6 1560.7 878.6C1543.7 884.6 1508.4 896.4 1497.9 900"/>
    <path d="M1600 8.2C1577.2 17.6 1504.2 47.9 1463.3 64.3C1422.4 80.7 1387 94.5 1354.7 106.8C1322.3 119.1 1296 128.8 1269.3 138.1C1242.7 147.4 1216 156.1 1194.7 162.5C1173.3 168.9 1153.8 173.4 1141.3 176.4C1128.9 179.4 1127.1 179.3 1120 180.4C1112.9 181.5 1105.8 182.5 1098.7 182.8C1091.6 183.1 1082.7 182.9 1077.3 182.4C1072 181.9 1070.2 181.2 1066.7 179.9C1063.1 178.5 1058.2 175.5 1056 174.1C1053.8 172.7 1054.4 173.7 1053.2 171.4C1052 169.2 1049.5 164.3 1049 160.7C1048.5 157.1 1049.3 153.6 1050.2 150C1051.1 146.4 1052.6 142.9 1054.4 139.3C1056.2 135.7 1056.9 133.9 1061.1 128.6C1065.2 123.2 1072.4 114.3 1079.4 107.1C1086.3 100 1091.9 94.6 1102.9 85.7C1114 76.8 1133.2 62.5 1145.7 53.6C1158.3 44.6 1163.9 41.1 1178.2 32.1C1192.5 23.2 1222.7 5.4 1231.6 0"/>
    <path d="M0 717.6C28.3 705.1 111.8 667.8 169.8 642.9C227.9 617.9 291.3 591.2 348.3 567.9C405.4 544.5 465.2 520.7 512 502.7C558.8 484.7 597.3 470.9 629.3 460C661.3 449 686.2 442 704 436.8C721.8 431.7 725.3 431.1 736 428.9C746.7 426.7 759.1 424.7 768 423.6C776.9 422.5 784 422.5 789.3 422.4C794.7 422.3 796.4 422.7 800 423.1C803.6 423.6 807.6 424.4 810.7 425.3C813.8 426.2 816.8 427.7 818.6 428.6C820.3 429.5 819.8 428.8 821.3 430.6C822.9 432.4 826.7 436.1 828 439.3C829.4 442.5 829.6 446.4 829.3 450C829.1 453.6 827.9 457.1 826.5 460.7C825.2 464.3 823.3 467.9 821.2 471.4C819 475 816.4 478.6 813.6 482.1C810.8 485.7 809.7 487.5 804.5 492.9C799.2 498.2 790.4 507.1 782.2 514.3C774 521.4 765 528.6 755.5 535.7C746 542.9 735.9 550 725.3 557.1C714.7 564.3 706.7 569.6 692.1 578.6C677.5 587.5 656.6 600 637.8 610.7C618.9 621.4 599.2 632.1 579 642.9C558.8 653.6 549.2 658.9 516.7 675C484.2 691.1 433.6 716.1 383.9 739.3C334.3 762.5 279.4 787.5 218.7 814.3C158 841.1 52.9 885.7 19.8 900"/>
    <path d="M1231.6 900C1244.7 892.9 1282.7 871.4 1309.8 857.1C1336.9 842.9 1365.2 828.6 1394.1 814.3C1422.9 800 1448.6 787.6 1483 771.4C1517.3 755.3 1580.5 726.5 1600 717.6"/>
    <path d="M96.6 0C80.5 7.2 16.1 36.1 0 43.4"/>
    <path d="M0 687C52.1 663.6 237.2 580.6 312.6 546.4C388.1 512.3 418 498.2 452.6 482.1C487.2 466.1 498.1 460.7 520.1 450C542.1 439.3 567.1 426.8 584.6 417.9C602.1 408.9 612.1 403.6 625.3 396.4C638.4 389.3 651.2 382.1 663.4 375C675.6 367.9 687.4 360.7 698.5 353.6C709.5 346.4 722.2 337.5 729.8 332.1C737.3 326.8 737.3 326.8 743.9 321.4C750.5 316.1 759.9 308.8 769.2 300C778.6 291.2 786.9 283.2 800 268.9C813.1 254.6 836.4 227 847.7 214.3C859.1 201.6 858.9 201.8 868 192.9C877.1 183.9 892.4 169.6 902.6 160.7C912.7 151.8 917 148.2 928.8 139.3C940.5 130.4 957.4 117.9 973 107.1C988.6 96.4 1005.2 85.7 1022.5 75C1039.8 64.3 1054.6 55.4 1076.7 42.9C1098.7 30.4 1141.8 7.1 1154.8 0"/>
    <path d="M1600 43.4C1572.8 55.8 1482.6 96.5 1436.8 117.9C1391 139.2 1357.5 155.4 1325.1 171.4C1292.8 187.5 1262.8 203.6 1242.8 214.3C1222.9 225 1217.4 228.6 1205.5 235.7C1193.6 242.9 1179.7 251.8 1171.4 257.1C1163.1 262.5 1163.1 262.5 1155.8 267.9C1148.5 273.2 1136.3 282.1 1127.6 289.3C1118.9 296.4 1111.8 302.6 1103.4 310.7C1095 318.8 1088.5 325.4 1077.3 337.9C1066.2 350.4 1046.5 374.2 1036.4 385.7C1026.3 397.2 1023.7 400 1016.8 407.1C1009.9 414.3 1002.7 421.4 995.1 428.6C987.5 435.7 981.8 441.1 970.9 450C960 458.9 941.6 473.2 929.6 482.1C917.6 491.1 912.4 494.6 898.9 503.6C885.3 512.5 866 525 848.4 535.7C830.8 546.4 812.4 557.1 793.4 567.9C774.5 578.6 754.8 589.3 734.7 600C714.6 610.7 705 616.1 672.9 632.1C640.8 648.2 594.7 671.4 542.2 696.4C489.8 721.4 432.5 748.2 358.2 782.1C284 816.1 140.2 880.4 96.6 900"/>
    <path d="M1154.8 900C1168.7 892.9 1206 873.2 1238.2 857.1C1270.4 841.1 1310.7 821.4 1348 803.6C1385.3 785.7 1420.1 769.4 1462.1 750C1504.1 730.6 1577 697.5 1600 687"/>
    <path d="M224.3 0C202.7 10.7 132.5 45.1 95.1 64.3C57.7 83.5 15.9 106.7 0 115.2"/>
    <path d="M0 631.8C18.3 623 77.5 594.6 109.9 578.6C142.4 562.6 167.2 550 194.7 535.7C222.2 521.4 249.1 507.1 274.8 492.9C300.4 478.6 325.3 464.3 348.6 450C371.9 435.7 396.3 419.6 414.6 407.1C432.9 394.6 444.6 385.7 458.4 375C472.3 364.3 473.1 364.3 497.8 342.9C522.5 321.4 581.8 267.9 606.7 246.4C631.7 225 633.2 225 647.6 214.3C662.1 203.6 674.3 194.6 693.3 182.1C712.3 169.6 737.7 153.6 761.7 139.3C785.7 125 811.3 110.7 837.6 96.4C863.8 82.1 887.7 69.6 919.3 53.6C950.9 37.5 1009.3 8.9 1027.3 0"/>
    <path d="M1600 115.2C1587.1 122.8 1541 149.6 1522.5 160.7C1504 171.9 1499.9 175 1489.2 182.1C1478.4 189.3 1468 196.4 1458 203.6C1447.9 210.7 1440.4 216.1 1429 225C1417.6 233.9 1411.9 237.5 1389.4 257.1C1366.9 276.8 1318.7 321.4 1294.1 342.9C1269.4 364.3 1255.1 375 1241.4 385.7C1227.7 396.4 1222.2 400 1212 407.1C1201.8 414.3 1191.2 421.4 1180.3 428.6C1169.4 435.7 1161.2 441.1 1146.5 450C1131.7 458.9 1110.8 471.4 1091.9 482.1C1073.1 492.9 1053.6 503.6 1033.6 514.3C1013.6 525 1004 530.4 972.1 546.4C940.1 562.5 886.4 589.3 842.1 610.7C797.8 632.1 786.7 637.5 706.3 675C625.9 712.5 439.9 798.2 359.6 835.7C279.3 873.2 246.8 889.3 224.3 900"/>
    <path d="M1027.3 900C1049.8 889.3 1066.9 880.4 1162.4 835.7C1257.8 791 1527.1 665.8 1600 631.8"/>
    <path d="M286.5 0C272.6 7.1 230.2 28.6 203.3 42.9C176.4 57.1 150.2 71.4 125.3 85.7C100.4 100 74.9 115.4 54 128.6C33.1 141.8 9 158.9 0 165"/>
    <path d="M0 602.1C14.5 594.6 59.6 571.8 87 557.1C114.5 542.5 139.8 528.6 164.5 514.3C189.2 500 215.5 483.9 235.2 471.4C255 458.9 270.1 448.2 282.9 439.3C295.7 430.4 300.6 426.8 312 417.9C323.5 408.9 339.1 396.4 351.7 385.7C364.2 375 372 367.9 387.4 353.6C402.8 339.3 428.5 314.3 444.1 300C459.8 285.7 468 278.6 481.2 267.9C494.3 257.1 508.2 246.4 523.1 235.7C538.1 225 550.9 216.1 570.9 203.6C590.8 191.1 617.6 175 642.9 160.7C668.2 146.4 691.5 133.9 722.6 117.9C753.8 101.8 789.4 83.9 829.8 64.3C870.2 44.6 942.6 10.7 965.1 0"/>
    <path d="M1600 165C1593.8 169.6 1573.3 184.6 1562.7 192.9C1552.2 201.1 1547 205.4 1536.7 214.3C1526.4 223.2 1518.2 230.4 1500.9 246.4C1483.7 262.5 1450.8 294.6 1433.2 310.7C1415.6 326.8 1406.4 333.9 1395.4 342.9C1384.4 351.8 1377.1 357.1 1367.3 364.3C1357.5 371.4 1347.2 378.6 1336.5 385.7C1325.8 392.9 1317.8 398.2 1303.2 407.1C1288.6 416.1 1274.5 425 1248.8 439.3C1223 453.6 1187.1 473.2 1148.7 492.9C1110.2 512.5 1062.7 535.7 1018.1 557.1C973.5 578.6 969.8 580.4 881.2 621.4C792.5 662.5 570.7 764.3 486.1 803.6C401.5 842.9 406.7 841.1 373.5 857.1C340.2 873.2 301 892.9 286.5 900"/>
    <path d="M965.1 900C1034.7 867.9 1294.3 748.2 1382.7 707.1C1471.1 666.1 1459.4 671.1 1495.6 653.6C1531.8 636.1 1582.6 610.7 1600 602.1"/>
    <path d="M353.1 0C340 7.1 296.9 30.4 274.8 42.9C252.7 55.4 237.9 64.3 220.6 75C203.3 85.7 186.6 96.4 171 107.1C155.5 117.9 138.7 130.4 127.1 139.3C115.4 148.2 111.1 151.8 101.2 160.7C91.3 169.6 76.4 183.9 67.5 192.9C58.7 201.8 59.4 201 48.1 214.3C36.9 227.6 8 263 0 272.8"/>
    <path d="M0 566.1C8.7 561.1 35.1 546.1 52.3 535.7C69.5 525.3 87 514.3 103.1 503.6C119.1 492.9 136.5 480.4 148.6 471.4C160.7 462.5 167 457.1 175.6 450C184.2 442.9 192.3 435.7 199.9 428.6C207.6 421.4 214.8 414.3 221.6 407.1C228.5 400 230.3 398.2 241 385.7C251.7 373.2 274.2 345.2 285.6 332.1C297 319 299.9 316 309.3 307.1C318.8 298.2 334.3 285.1 342.2 278.6C350 272 348.7 273.2 356.4 267.9C364.1 262.5 377 253.6 388.3 246.4C399.5 239.3 411.5 232.1 423.9 225C436.4 217.9 449.4 210.7 462.8 203.6C476.1 196.4 486.3 191.1 504.1 182.1C521.9 173.2 535.6 166.1 569.5 150C603.5 133.9 652.9 110.7 707.7 85.7C762.6 60.7 866.7 14.3 898.5 0"/>
    <path d="M1600 272.8C1597.5 275.5 1591.2 283 1584.9 289.3C1578.5 295.6 1568.1 305.4 1562.1 310.7C1556.2 316.1 1556.2 316.1 1549.2 321.4C1542.2 326.8 1533.5 333.9 1520 342.9C1506.6 351.8 1490.4 362.5 1468.6 375C1446.7 387.5 1416.8 403.6 1388.9 417.9C1361 432.1 1331.2 446.4 1301.2 460.7C1271.2 475 1296.1 464.3 1209.1 503.6C1122.1 542.9 878.1 651.8 779.1 696.4C680.2 741.1 665.1 748.2 615.3 771.4C565.4 794.6 523.9 814.3 480.2 835.7C436.5 857.1 374.3 889.3 353.1 900"/>
    <path d="M898.5 900C942.3 880.4 1086.4 816.1 1160.8 782.1C1235.3 748.2 1299.7 717.9 1345.2 696.4C1390.6 675 1408 666.1 1433.4 653.6C1458.7 641.1 1469.3 636 1497.1 621.4C1524.8 606.9 1582.8 575.3 1600 566.1"/>
    <path d="M563.4 0C562.4 1.8 557.4 7.3 557.7 10.7C558 14.2 562.3 18.8 565.3 20.8C568.4 22.7 570.7 22.3 576 22.4C581.3 22.5 590.2 22.2 597.3 21.4C604.4 20.6 609.9 19.3 618.7 17.5C627.4 15.7 638.4 13.6 650 10.7C661.6 7.8 681.9 1.8 688.3 0"/>
    <path d="M688.3 900C694 898.2 706.5 894.6 722.6 889.3C738.7 883.9 755.8 878.6 784.9 867.9C813.9 857.1 857.2 841.1 897 825C936.8 808.9 987 787.5 1023.6 771.4C1060.1 755.4 1086.7 742.9 1116.3 728.6C1145.9 714.3 1180.4 696.4 1201 685.7C1221.5 675 1227.2 671.4 1239.5 664.3C1251.8 657.1 1263.7 650 1274.6 642.9C1285.5 635.7 1297.8 626.8 1304.9 621.4C1312.1 616.1 1313.7 614.3 1317.4 610.7C1321.1 607.1 1324.7 603.6 1327.1 600C1329.5 596.4 1332.4 592.4 1331.6 589.3C1330.9 586.2 1325.9 583.2 1322.7 581.6C1319.4 580 1317.3 579.7 1312 579.7C1306.7 579.6 1301.4 579.6 1290.7 581.2C1279.9 582.8 1261.2 586.1 1247.5 589.3C1233.7 592.4 1225.7 594.6 1207.9 600C1190.1 605.4 1166.6 612.5 1140.7 621.4C1114.8 630.4 1080.5 642.9 1052.2 653.6C1023.9 664.3 997.2 675 970.9 685.7C944.7 696.4 919.4 707.1 894.7 717.9C870 728.6 846 739.3 822.7 750C799.4 760.7 776.7 771.4 754.9 782.1C733.1 792.9 711.8 803.6 691.8 814.3C671.8 825 649.9 837.5 634.8 846.4C619.7 855.4 609.4 862.5 601.4 867.9C593.3 873.2 591.1 875 586.5 878.6C581.9 882.1 577.5 885.7 573.7 889.3C569.8 892.9 565.1 898.2 563.4 900"/>
  </g>
  <g fill="none" stroke="#B26BDE" stroke-width="2.52" stroke-opacity="0.9" stroke-linecap="round" stroke-linejoin="round">
    <path d="M162.3 0C135.3 12.9 27.1 64.6 0 77.5"/>
    <path d="M0 659.3C28.9 645.9 122.4 602.7 173.4 578.6C224.4 554.4 266.8 533.9 306.1 514.3C345.5 494.6 379.8 476.8 409.7 460.7C439.6 444.6 467 428.6 485.4 417.9C503.7 407.1 508.9 403.6 520 396.4C531.2 389.3 539.6 383.9 552.3 375C565 366.1 582.3 353.6 596 342.9C609.7 332.1 616.6 326.8 634.6 310.7C652.6 294.6 686.3 262.5 703.9 246.4C721.5 230.4 727.4 225 740.1 214.3C752.8 203.6 768.5 191.1 780.1 182.1C791.6 173.2 796.5 169.6 809.4 160.7C822.3 151.8 837.6 141.1 857.5 128.6C877.3 116.1 903.7 100 928.5 85.7C953.3 71.4 979.5 57.1 1006.2 42.9C1033 28.6 1075.3 7.1 1089.1 0"/>
    <path d="M1600 77.5C1586.6 84.2 1546.4 104 1519.7 117.9C1493 131.7 1462.3 148.2 1439.8 160.7C1417.3 173.2 1402.2 182.1 1384.6 192.9C1367.1 203.6 1348 216.1 1334.6 225C1321.2 233.9 1316.2 237.5 1304.4 246.4C1292.6 255.4 1276.5 267.9 1263.7 278.6C1250.9 289.3 1245 294.6 1227.6 310.7C1210.1 326.8 1174.6 360.7 1159.1 375C1143.5 389.3 1142.9 389.3 1134.3 396.4C1125.8 403.6 1116.9 410.7 1107.7 417.9C1098.5 425 1091.6 430.4 1078.9 439.3C1066.2 448.2 1045.2 462.5 1031.6 471.4C1018 480.4 1012.2 483.9 997.4 492.9C982.5 501.8 961.4 514.3 942.5 525C923.6 535.7 904 546.4 884 557.1C864 567.9 854.4 573.2 822.5 589.3C790.7 605.4 740.9 630.4 692.8 653.6C644.7 676.8 622.4 687.5 534 728.6C445.6 769.6 224.3 871.4 162.3 900"/>
    <path d="M1089.1 900C1103.6 892.9 1142.7 873.2 1175.9 857.1C1209.1 841.1 1217.5 836.5 1288.1 803.6C1358.8 770.6 1548 683.4 1600 659.3"/>
    <path d="M432 0C423.1 5.4 393 23.2 378.8 32.1C364.5 41.1 356.8 46.4 346.6 53.6C336.4 60.7 326.6 67.9 317.6 75C308.6 82.1 300.1 89.3 292.7 96.4C285.3 103.6 277.5 112.5 272.9 117.9C268.4 123.2 267.6 125 265.5 128.6C263.4 132.1 261.7 135.7 260.4 139.3C259.2 142.9 258.2 146.4 258.3 150C258.3 153.6 259.5 157.9 260.9 160.7C262.3 163.5 264.3 164.9 266.7 166.6C269 168.4 271.5 170.2 275.1 171.4C278.6 172.7 284.1 173.7 288 174.3C291.9 174.9 293.3 175.1 298.7 175C304 175 312.9 174.8 320 174.1C327.1 173.5 334.2 172.4 341.3 171.2C348.4 169.9 353.8 168.8 362.7 166.8C371.6 164.7 384 161.6 394.7 158.8C405.3 155.9 410.7 154.5 426.7 149.5C442.7 144.4 465.4 137.2 490.7 128.4C515.9 119.5 545.4 108.9 578.3 96.4C611.3 84 648.2 69.6 688.4 53.6C728.6 37.5 797.8 8.9 819.7 0"/>
    <path d="M0 500.8C2.8 497.7 12.8 487 16.7 482.1C20.7 477.3 21.8 475 23.8 471.4C25.8 467.9 27.5 464.3 28.6 460.7C29.6 457.1 30.6 453.6 30.2 450C29.8 446.4 27.8 441.8 26.4 439.3C24.9 436.8 23.9 436.4 21.3 434.8C18.7 433.2 14.2 430.8 10.7 429.6C7.1 428.4 1.8 427.9 0 427.5"/>
    <path d="M1600 427.5C1596.4 427.5 1587.6 426.5 1578.7 427.1C1569.8 427.7 1559.1 428.9 1546.7 431.2C1534.2 433.4 1520 436.6 1504 440.8C1488 445 1468.4 450.8 1450.7 456.4C1432.9 462 1418.7 466.7 1397.3 474.2C1376 481.7 1363.5 485.6 1322.7 501.2C1281.9 516.8 1215.1 542.5 1152.6 567.9C1090 593.2 1002.1 630.4 947.5 653.6C892.8 676.8 861.1 691.1 824.9 707.1C788.6 723.2 761.1 735.7 730.1 750C699.1 764.3 668.5 778.6 638.8 792.9C609 807.1 576.5 823.2 551.7 835.7C526.9 848.2 509.9 857.1 489.9 867.9C470 878.6 441.7 894.6 432 900"/>
    <path d="M819.7 900C844.9 889.3 921.6 857.1 971 835.7C1020.4 814.3 1072.7 791.1 1116.1 771.4C1159.5 751.8 1194.1 735.7 1231.5 717.9C1268.9 700 1308.8 680.4 1340.5 664.3C1372.2 648.2 1395.8 635.7 1421.6 621.4C1447.4 607.1 1477.6 589.3 1495.4 578.6C1513.3 567.9 1518.1 564.3 1528.7 557.1C1539.3 550 1549.6 542.9 1559.1 535.7C1568.6 528.6 1578.9 520.1 1585.7 514.3C1592.6 508.5 1597.6 503 1600 500.8"/>
  </g>
</svg>
